
<svg version="1.1" id="Capa_1" xmlns="http://www.w3.org/2000/svg" xmlns:xlink="http://www.w3.org/1999/xlink" x="0px" y="0px"
	 width="301.153px" height="301.153px" viewBox="0 0 301.153 301.153" style="enable-background:new 0 0 301.153 301.153;"
	 xml:space="preserve">
<g>
	<path d="M257.098,44.055c-58.738-58.736-154.311-58.742-213.047,0c-58.733,58.738-58.727,154.319,0,213.047
		c58.742,58.739,154.314,58.733,213.047,0C315.831,198.362,315.837,102.793,257.098,44.055z M148.952,189.476
		c-2.402,2.402-6.29,2.402-8.695,0l-50.008-50.005c-1.186-1.198-1.79-2.771-1.801-4.348c0-1.573,0.604-3.146,1.801-4.348
		c2.405-2.401,6.29-2.401,8.695,0l45.648,45.657l66.305-66.299c2.414-2.411,6.3-2.401,8.707,0c2.402,2.405,2.402,6.29,0,8.695
		L148.952,189.476z"/>
</g>
<g>
</g>
<g>
</g>
<g>
</g>
<g>
</g>
<g>
</g>
<g>
</g>
<g>
</g>
<g>
</g>
<g>
</g>
<g>
</g>
<g>
</g>
<g>
</g>
<g>
</g>
<g>
</g>
<g>
</g>
</svg>
